<svg xmlns="http://www.w3.org/2000/svg" version="1.1" width="300" height="157.5" viewBox="0 0 300 157.5"><defs/><path fill="#000000" stroke="#000000" d="M 75,135 L 225,135" style="stroke-width: 1.2px;stroke-opacity: 1;fill-opacity: 0" stroke-width="1.2" stroke-opacity="1" stroke-dasharray="0" fill-opacity="0" transform=""/><path fill="#000000" stroke="#000000" d="M 75,135 L 225,135" style="stroke-width: 1.2px;stroke-opacity: 1;fill-opacity: 0" stroke-width="1.2" stroke-opacity="1" stroke-dasharray="0" fill-opacity="0" transform="rotate(315 75 135)"/><ellipse cx="181.06601717798213" cy="28.933982822017885" rx="4" ry="4" fill="#a24d61" stroke="#a24d61" style="stroke-width: 2px;stroke-opacity: 1;fill-opacity: 1" stroke-width="2" stroke-opacity="1" stroke-dasharray="0" fill-opacity="1"/><path fill="#000000" stroke="#000000" d="M 97.2307,135 A 22.2307,22.2307 0 0,0 90.7195,119.281" style="stroke-width: 1px;stroke-opacity: 1;fill-opacity: 0" stroke-width="1" stroke-opacity="1" stroke-dasharray="0" fill-opacity="0"/><path fill="#000000" stroke="#e1a158" d="M 178.054,34.4771 C 178.354,32.6771 181.654,29.9771 182.554,29.6771 C 181.654,29.3771 178.354,26.6771 178.054,24.8771" transform="rotate(-134.69633206669872 182.55394528990897 29.677091183455133)" style="stroke-width: 1.5px;stroke-opacity: 1;fill-opacity: 0;stroke-linejoin: round;stroke-linecap: round" stroke-width="1.5" stroke-opacity="1" stroke-dasharray="0" fill-opacity="0" stroke-linejoin="round" stroke-linecap="round"/><path fill="#000000" stroke="#e1a158" d="M 225,135 S 225,134.853 225,134.853 S 225,134.705 225,134.705 S 224.999,134.558 224.999,134.558 S 224.999,134.411 224.999,134.411 S 224.998,134.264 224.998,134.264 S 224.997,134.116 224.997,134.116 S 224.996,133.969 224.996,133.969 S 224.995,133.822 224.995,133.822 S 224.994,133.675 224.994,133.675 S 224.993,133.527 224.993,133.527 S 224.991,133.38 224.991,133.38 S 224.99,133.233 224.99,133.233 S 224.988,133.086 224.988,133.086 S 224.986,132.938 224.986,132.938 S 224.984,132.791 224.984,132.791 S 224.981,132.644 224.981,132.644 S 224.979,132.497 224.979,132.497 S 224.977,132.349 224.977,132.349 S 224.974,132.202 224.974,132.202 S 224.971,132.055 224.971,132.055 S 224.968,131.908 224.968,131.908 S 224.965,131.76 224.965,131.76 S 224.962,131.613 224.962,131.613 S 224.958,131.466 224.958,131.466 S 224.955,131.319 224.955,131.319 S 224.951,131.172 224.951,131.172 S 224.947,131.024 224.947,131.024 S 224.943,130.877 224.943,130.877 S 224.939,130.73 224.939,130.73 S 224.935,130.583 224.935,130.583 S 224.931,130.436 224.931,130.436 S 224.926,130.288 224.926,130.288 S 224.921,130.141 224.921,130.141 S 224.916,129.994 224.916,129.994 S 224.911,129.847 224.911,129.847 S 224.906,129.7 224.906,129.7 S 224.901,129.552 224.901,129.552 S 224.896,129.405 224.896,129.405 S 224.89,129.258 224.89,129.258 S 224.884,129.111 224.884,129.111 S 224.879,128.964 224.879,128.964 S 224.873,128.817 224.873,128.817 S 224.866,128.67 224.866,128.67 S 224.86,128.522 224.86,128.522 S 224.854,128.375 224.854,128.375 S 224.847,128.228 224.847,128.228 S 224.84,128.081 224.84,128.081 S 224.833,127.934 224.833,127.934 S 224.826,127.787 224.826,127.787 S 224.819,127.64 224.819,127.64 S 224.812,127.493 224.812,127.493 S 224.805,127.346 224.805,127.346 S 224.797,127.199 224.797,127.199 S 224.789,127.052 224.789,127.052 S 224.781,126.905 224.781,126.905 S 224.773,126.757 224.773,126.757 S 224.765,126.61 224.765,126.61 S 224.757,126.463 224.757,126.463 S 224.748,126.316 224.748,126.316 S 224.74,126.169 224.74,126.169 S 224.731,126.022 224.731,126.022 S 224.722,125.875 224.722,125.875 S 224.713,125.728 224.713,125.728 S 224.704,125.581 224.704,125.581 S 224.695,125.434 224.695,125.434 S 224.685,125.287 224.685,125.287 S 224.676,125.141 224.676,125.141 S 224.666,124.994 224.666,124.994 S 224.656,124.847 224.656,124.847 S 224.646,124.7 224.646,124.7 S 224.636,124.553 224.636,124.553 S 224.625,124.406 224.625,124.406 S 224.615,124.259 224.615,124.259 S 224.604,124.112 224.604,124.112 S 224.594,123.965 224.594,123.965 S 224.583,123.818 224.583,123.818 S 224.572,123.672 224.572,123.672 S 224.56,123.525 224.56,123.525 S 224.549,123.378 224.549,123.378 S 224.538,123.231 224.538,123.231 S 224.526,123.084 224.526,123.084 S 224.514,122.938 224.514,122.938 S 224.502,122.791 224.502,122.791 S 224.49,122.644 224.49,122.644 S 224.478,122.497 224.478,122.497 S 224.466,122.35 224.466,122.35 S 224.453,122.204 224.453,122.204 S 224.441,122.057 224.441,122.057 S 224.428,121.91 224.428,121.91 S 224.415,121.764 224.415,121.764 S 224.402,121.617 224.402,121.617 S 224.389,121.47 224.389,121.47 S 224.375,121.324 224.375,121.324 S 224.362,121.177 224.362,121.177 S 224.348,121.03 224.348,121.03 S 224.334,120.884 224.334,120.884 S 224.32,120.737 224.32,120.737 S 224.306,120.591 224.306,120.591 S 224.292,120.444 224.292,120.444 S 224.278,120.297 224.278,120.297 S 224.263,120.151 224.263,120.151 S 224.249,120.004 224.249,120.004 S 224.234,119.858 224.234,119.858 S 224.219,119.711 224.219,119.711 S 224.204,119.565 224.204,119.565 S 224.189,119.418 224.189,119.418 S 224.173,119.272 224.173,119.272 S 224.158,119.125 224.158,119.125 S 224.142,118.979 224.142,118.979 S 224.126,118.833 224.126,118.833 S 224.11,118.686 224.11,118.686 S 224.094,118.54 224.094,118.54 S 224.078,118.393 224.078,118.393 S 224.062,118.247 224.062,118.247 S 224.045,118.101 224.045,118.101 S 224.028,117.954 224.028,117.954 S 224.012,117.808 224.012,117.808 S 223.995,117.662 223.995,117.662 S 223.978,117.516 223.978,117.516 S 223.96,117.369 223.96,117.369 S 223.943,117.223 223.943,117.223 S 223.925,117.077 223.925,117.077 S 223.908,116.931 223.908,116.931 S 223.89,116.785 223.89,116.785 S 223.872,116.638 223.872,116.638 S 223.854,116.492 223.854,116.492 S 223.836,116.346 223.836,116.346 S 223.817,116.2 223.817,116.2 S 223.799,116.054 223.799,116.054 S 223.78,115.908 223.78,115.908 S 223.761,115.762 223.761,115.762 S 223.742,115.616 223.742,115.616 S 223.723,115.47 223.723,115.47 S 223.704,115.324 223.704,115.324 S 223.684,115.178 223.684,115.178 S 223.665,115.032 223.665,115.032 S 223.645,114.886 223.645,114.886 S 223.625,114.74 223.625,114.74 S 223.606,114.594 223.606,114.594 S 223.585,114.448 223.585,114.448 S 223.565,114.302 223.565,114.302 S 223.545,114.156 223.545,114.156 S 223.524,114.011 223.524,114.011 S 223.504,113.865 223.504,113.865 S 223.483,113.719 223.483,113.719 S 223.462,113.573 223.462,113.573 S 223.441,113.428 223.441,113.428 S 223.419,113.282 223.419,113.282 S 223.398,113.136 223.398,113.136 S 223.376,112.99 223.376,112.99 S 223.355,112.845 223.355,112.845 S 223.333,112.699 223.333,112.699 S 223.311,112.554 223.311,112.554 S 223.289,112.408 223.289,112.408 S 223.267,112.262 223.267,112.262 S 223.244,112.117 223.244,112.117 S 223.222,111.971 223.222,111.971 S 223.199,111.826 223.199,111.826 S 223.176,111.68 223.176,111.68 S 223.153,111.535 223.153,111.535 S 223.13,111.389 223.13,111.389 S 223.107,111.244 223.107,111.244 S 223.083,111.099 223.083,111.099 S 223.06,110.953 223.06,110.953 S 223.036,110.808 223.036,110.808 S 223.012,110.663 223.012,110.663 S 222.988,110.517 222.988,110.517 S 222.964,110.372 222.964,110.372 S 222.94,110.227 222.94,110.227 S 222.916,110.081 222.916,110.081 S 222.891,109.936 222.891,109.936 S 222.867,109.791 222.867,109.791 S 222.842,109.646 222.842,109.646 S 222.817,109.501 222.817,109.501 S 222.792,109.356 222.792,109.356 S 222.766,109.211 222.766,109.211 S 222.741,109.066 222.741,109.066 S 222.715,108.921 222.715,108.921 S 222.69,108.776 222.69,108.776 S 222.664,108.631 222.664,108.631 S 222.638,108.486 222.638,108.486 S 222.612,108.341 222.612,108.341 S 222.586,108.196 222.586,108.196 S 222.559,108.051 222.559,108.051 S 222.533,107.906 222.533,107.906 S 222.506,107.761 222.506,107.761 S 222.479,107.616 222.479,107.616 S 222.452,107.472 222.452,107.472 S 222.425,107.327 222.425,107.327 S 222.398,107.182 222.398,107.182 S 222.371,107.037 222.371,107.037 S 222.343,106.893 222.343,106.893 S 222.315,106.748 222.315,106.748 S 222.288,106.604 222.288,106.604 S 222.26,106.459 222.26,106.459 S 222.232,106.314 222.232,106.314 S 222.203,106.17 222.203,106.17 S 222.175,106.025 222.175,106.025 S 222.146,105.881 222.146,105.881 S 222.118,105.736 222.118,105.736 S 222.089,105.592 222.089,105.592 S 222.06,105.448 222.06,105.448 S 222.031,105.303 222.031,105.303 S 222.002,105.159 222.002,105.159 S 221.972,105.015 221.972,105.015 S 221.943,104.87 221.943,104.87 S 221.913,104.726 221.913,104.726 S 221.883,104.582 221.883,104.582 S 221.853,104.438 221.853,104.438 S 221.823,104.294 221.823,104.294 S 221.793,104.149 221.793,104.149 S 221.763,104.005 221.763,104.005 S 221.732,103.861 221.732,103.861 S 221.702,103.717 221.702,103.717 S 221.671,103.573 221.671,103.573 S 221.64,103.429 221.64,103.429 S 221.609,103.285 221.609,103.285 S 221.578,103.141 221.578,103.141 S 221.546,102.997 221.546,102.997 S 221.515,102.854 221.515,102.854 S 221.483,102.71 221.483,102.71 S 221.451,102.566 221.451,102.566 S 221.42,102.422 221.42,102.422 S 221.388,102.279 221.388,102.279 S 221.355,102.135 221.355,102.135 S 221.323,101.991 221.323,101.991 S 221.291,101.848 221.291,101.848 S 221.258,101.704 221.258,101.704 S 221.225,101.56 221.225,101.56 S 221.192,101.417 221.192,101.417 S 221.159,101.273 221.159,101.273 S 221.126,101.13 221.126,101.13 S 221.093,100.986 221.093,100.986 S 221.059,100.843 221.059,100.843 S 221.026,100.7 221.026,100.7 S 220.992,100.556 220.992,100.556 S 220.958,100.413 220.958,100.413 S 220.924,100.27 220.924,100.27 S 220.89,100.126 220.89,100.126 S 220.855,99.9832 220.855,99.9832 S 220.821,99.84 220.821,99.84 S 220.786,99.6969 220.786,99.6969 S 220.752,99.5538 220.752,99.5538 S 220.717,99.4107 220.717,99.4107 S 220.682,99.2677 220.682,99.2677 S 220.647,99.1246 220.647,99.1246 S 220.611,98.9817 220.611,98.9817 S 220.576,98.8387 220.576,98.8387 S 220.54,98.6958 220.54,98.6958 S 220.505,98.553 220.505,98.553 S 220.469,98.4101 220.469,98.4101 S 220.433,98.2673 220.433,98.2673 S 220.397,98.1246 220.397,98.1246 S 220.36,97.9819 220.36,97.9819 S 220.324,97.8392 220.324,97.8392 S 220.287,97.6965 220.287,97.6965 S 220.251,97.5539 220.251,97.5539 S 220.214,97.4113 220.214,97.4113 S 220.177,97.2688 220.177,97.2688 S 220.14,97.1263 220.14,97.1263 S 220.103,96.9838 220.103,96.9838 S 220.065,96.8414 220.065,96.8414 S 220.028,96.699 220.028,96.699 S 219.99,96.5566 219.99,96.5566 S 219.952,96.4143 219.952,96.4143 S 219.914,96.272 219.914,96.272 S 219.876,96.1297 219.876,96.1297 S 219.838,95.9875 219.838,95.9875 S 219.8,95.8453 219.8,95.8453 S 219.761,95.7032 219.761,95.7032 S 219.722,95.5611 219.722,95.5611 S 219.684,95.419 219.684,95.419 S 219.645,95.277 219.645,95.277 S 219.606,95.135 219.606,95.135 S 219.566,94.9931 219.566,94.9931 S 219.527,94.8512 219.527,94.8512 S 219.488,94.7093 219.488,94.7093 S 219.448,94.5675 219.448,94.5675 S 219.408,94.4257 219.408,94.4257 S 219.368,94.2839 219.368,94.2839 S 219.328,94.1422 219.328,94.1422 S 219.288,94.0005 219.288,94.0005 S 219.248,93.8589 219.248,93.8589 S 219.207,93.7173 219.207,93.7173 S 219.167,93.5758 219.167,93.5758 S 219.126,93.4342 219.126,93.4342 S 219.085,93.2928 219.085,93.2928 S 219.044,93.1513 219.044,93.1513 S 219.003,93.0099 219.003,93.0099 S 218.962,92.8686 218.962,92.8686 S 218.92,92.7273 218.92,92.7273 S 218.879,92.586 218.879,92.586 S 218.837,92.4448 218.837,92.4448 S 218.795,92.3036 218.795,92.3036 S 218.753,92.1624 218.753,92.1624 S 218.711,92.0213 218.711,92.0213 S 218.669,91.8802 218.669,91.8802 S 218.626,91.7392 218.626,91.7392 S 218.584,91.5982 218.584,91.5982 S 218.541,91.4573 218.541,91.4573 S 218.498,91.3164 218.498,91.3164 S 218.455,91.1755 218.455,91.1755 S 218.412,91.0347 218.412,91.0347 S 218.369,90.894 218.369,90.894 S 218.326,90.7532 218.326,90.7532 S 218.282,90.6125 218.282,90.6125 S 218.238,90.4719 218.238,90.4719 S 218.195,90.3313 218.195,90.3313 S 218.151,90.1907 218.151,90.1907 S 218.107,90.0502 218.107,90.0502 S 218.062,89.9097 218.062,89.9097 S 218.018,89.7693 218.018,89.7693 S 217.974,89.6289 217.974,89.6289 S 217.929,89.4886 217.929,89.4886 S 217.884,89.3483 217.884,89.3483 S 217.839,89.208 217.839,89.208 S 217.794,89.0678 217.794,89.0678 S 217.749,88.9276 217.749,88.9276 S 217.704,88.7875 217.704,88.7875 S 217.658,88.6475 217.658,88.6475 S 217.613,88.5074 217.613,88.5074 S 217.567,88.3674 217.567,88.3674 S 217.521,88.2275 217.521,88.2275 S 217.475,88.0876 217.475,88.0876 S 217.429,87.9477 217.429,87.9477 S 217.383,87.8079 217.383,87.8079 S 217.337,87.6682 217.337,87.6682 S 217.29,87.5285 217.29,87.5285 S 217.243,87.3888 217.243,87.3888 S 217.197,87.2492 217.197,87.2492 S 217.15,87.1096 217.15,87.1096 S 217.103,86.9701 217.103,86.9701 S 217.055,86.8306 217.055,86.8306 S 217.008,86.6911 217.008,86.6911 S 216.96,86.5517 216.96,86.5517 S 216.913,86.4124 216.913,86.4124 S 216.865,86.2731 216.865,86.2731 S 216.817,86.1338 216.817,86.1338 S 216.769,85.9946 216.769,85.9946 S 216.721,85.8555 216.721,85.8555 S 216.673,85.7164 216.673,85.7164 S 216.624,85.5773 216.624,85.5773 S 216.576,85.4383 216.576,85.4383 S 216.527,85.2993 216.527,85.2993 S 216.478,85.1604 216.478,85.1604 S 216.429,85.0215 216.429,85.0215 S 216.38,84.8827 216.38,84.8827 S 216.331,84.7439 216.331,84.7439 S 216.281,84.6052 216.281,84.6052 S 216.232,84.4665 216.232,84.4665 S 216.182,84.3279 216.182,84.3279 S 216.132,84.1893 216.132,84.1893 S 216.082,84.0508 216.082,84.0508 S 216.032,83.9123 216.032,83.9123 S 215.982,83.7739 215.982,83.7739 S 215.931,83.6355 215.931,83.6355 S 215.881,83.4971 215.881,83.4971 S 215.83,83.3589 215.83,83.3589 S 215.78,83.2206 215.78,83.2206 S 215.729,83.0824 215.729,83.0824 S 215.678,82.9443 215.678,82.9443 S 215.626,82.8062 215.626,82.8062 S 215.575,82.6682 215.575,82.6682 S 215.524,82.5302 215.524,82.5302 S 215.472,82.3923 215.472,82.3923 S 215.42,82.2544 215.42,82.2544 S 215.369,82.1166 215.369,82.1166 S 215.317,81.9788 215.317,81.9788 S 215.264,81.841 215.264,81.841 S 215.212,81.7034 215.212,81.7034 S 215.16,81.5657 215.16,81.5657 S 215.107,81.4282 215.107,81.4282 S 215.055,81.2906 215.055,81.2906 S 215.002,81.1532 215.002,81.1532 S 214.949,81.0157 214.949,81.0157 S 214.896,80.8784 214.896,80.8784 S 214.843,80.7411 214.843,80.7411 S 214.789,80.6038 214.789,80.6038 S 214.736,80.4666 214.736,80.4666 S 214.682,80.3294 214.682,80.3294 S 214.629,80.1923 214.629,80.1923 S 214.575,80.0553 214.575,80.0553 S 214.521,79.9183 214.521,79.9183 S 214.466,79.7813 214.466,79.7813 S 214.412,79.6444 214.412,79.6444 S 214.358,79.5076 214.358,79.5076 S 214.303,79.3708 214.303,79.3708 S 214.249,79.2341 214.249,79.2341 S 214.194,79.0974 214.194,79.0974 S 214.139,78.9608 214.139,78.9608 S 214.084,78.8242 214.084,78.8242 S 214.028,78.6877 214.028,78.6877 S 213.973,78.5512 213.973,78.5512 S 213.918,78.4148 213.918,78.4148 S 213.862,78.2784 213.862,78.2784 S 213.806,78.1421 213.806,78.1421 S 213.75,78.0059 213.75,78.0059 S 213.694,77.8697 213.694,77.8697 S 213.638,77.7336 213.638,77.7336 S 213.582,77.5975 213.582,77.5975 S 213.526,77.4615 213.526,77.4615 S 213.469,77.3255 213.469,77.3255 S 213.412,77.1896 213.412,77.1896 S 213.355,77.0537 213.355,77.0537 S 213.298,76.9179 213.298,76.9179 S 213.241,76.7822 213.241,76.7822 S 213.184,76.6465 213.184,76.6465 S 213.127,76.5108 213.127,76.5108 S 213.069,76.3753 213.069,76.3753 S 213.012,76.2397 213.012,76.2397 S 212.954,76.1043 212.954,76.1043 S 212.896,75.9689 212.896,75.9689 S 212.838,75.8335 212.838,75.8335 S 212.78,75.6982 212.78,75.6982 S 212.722,75.563 212.722,75.563 S 212.663,75.4278 212.663,75.4278 S 212.605,75.2927 212.605,75.2927 S 212.546,75.1576 212.546,75.1576 S 212.487,75.0226 212.487,75.0226 S 212.428,74.8877 212.428,74.8877 S 212.369,74.7528 212.369,74.7528 S 212.31,74.618 212.31,74.618 S 212.251,74.4832 212.251,74.4832 S 212.191,74.3485 212.191,74.3485 S 212.131,74.2138 212.131,74.2138 S 212.072,74.0792 212.072,74.0792 S 212.012,73.9447 212.012,73.9447 S 211.952,73.8102 211.952,73.8102 S 211.892,73.6758 211.892,73.6758 S 211.831,73.5414 211.831,73.5414 S 211.771,73.4071 211.771,73.4071 S 211.71,73.2728 211.71,73.2728 S 211.65,73.1387 211.65,73.1387 S 211.589,73.0045 211.589,73.0045 S 211.528,72.8705 211.528,72.8705 S 211.467,72.7365 211.467,72.7365 S 211.406,72.6025 211.406,72.6025 S 211.345,72.4686 211.345,72.4686 S 211.283,72.3348 211.283,72.3348 S 211.221,72.201 211.221,72.201 S 211.16,72.0673 211.16,72.0673 S 211.098,71.9337 211.098,71.9337 S 211.036,71.8001 211.036,71.8001 S 210.974,71.6666 210.974,71.6666 S 210.912,71.5331 210.912,71.5331 S 210.849,71.3997 210.849,71.3997 S 210.787,71.2664 210.787,71.2664 S 210.724,71.1331 210.724,71.1331 S 210.661,70.9999 210.661,70.9999 S 210.598,70.8667 210.598,70.8667 S 210.535,70.7336 210.535,70.7336 S 210.472,70.6006 210.472,70.6006 S 210.409,70.4676 210.409,70.4676 S 210.345,70.3347 210.345,70.3347 S 210.282,70.2019 210.282,70.2019 S 210.218,70.0691 210.218,70.0691 S 210.154,69.9364 210.154,69.9364 S 210.091,69.8037 210.091,69.8037 S 210.026,69.6711 210.026,69.6711 S 209.962,69.5386 209.962,69.5386 S 209.898,69.4061 209.898,69.4061 S 209.833,69.2737 209.833,69.2737 S 209.769,69.1414 209.769,69.1414 S 209.704,69.0091 209.704,69.0091 S 209.639,68.8769 209.639,68.8769 S 209.574,68.7448 209.574,68.7448 S 209.509,68.6127 209.509,68.6127 S 209.444,68.4807 209.444,68.4807 S 209.379,68.3487 209.379,68.3487 S 209.313,68.2168 209.313,68.2168 S 209.247,68.085 209.247,68.085 S 209.182,67.9532 209.182,67.9532 S 209.116,67.8215 209.116,67.8215 S 209.05,67.6899 209.05,67.6899 S 208.984,67.5583 208.984,67.5583 S 208.917,67.4268 208.917,67.4268 S 208.851,67.2954 208.851,67.2954 S 208.784,67.164 208.784,67.164 S 208.718,67.0327 208.718,67.0327 S 208.651,66.9014 208.651,66.9014 S 208.584,66.7702 208.584,66.7702 S 208.517,66.6391 208.517,66.6391 S 208.45,66.5081 208.45,66.5081 S 208.383,66.3771 208.383,66.3771 S 208.315,66.2462 208.315,66.2462 S 208.248,66.1153 208.248,66.1153 S 208.18,65.9846 208.18,65.9846 S 208.112,65.8538 208.112,65.8538 S 208.044,65.7232 208.044,65.7232 S 207.976,65.5926 207.976,65.5926 S 207.908,65.4621 207.908,65.4621 S 207.839,65.3316 207.839,65.3316 S 207.771,65.2013 207.771,65.2013 S 207.702,65.071 207.702,65.071 S 207.634,64.9407 207.634,64.9407 S 207.565,64.8105 207.565,64.8105 S 207.496,64.6804 207.496,64.6804 S 207.427,64.5504 207.427,64.5504 S 207.358,64.4204 207.358,64.4204 S 207.288,64.2905 207.288,64.2905 S 207.219,64.1606 207.219,64.1606 S 207.149,64.0309 207.149,64.0309 S 207.079,63.9012 207.079,63.9012 S 207.009,63.7715 207.009,63.7715 S 206.94,63.642 206.94,63.642 S 206.869,63.5125 206.869,63.5125 S 206.799,63.3831 206.799,63.3831 S 206.729,63.2537 206.729,63.2537 S 206.658,63.1244 206.658,63.1244 S 206.588,62.9952 206.588,62.9952 S 206.517,62.866 206.517,62.866 S 206.446,62.7369 206.446,62.7369 S 206.375,62.6079 206.375,62.6079 S 206.304,62.479 206.304,62.479 S 206.233,62.3501 206.233,62.3501 S 206.161,62.2213 206.161,62.2213 S 206.09,62.0926 206.09,62.0926 S 206.018,61.9639 206.018,61.9639 S 205.946,61.8353 205.946,61.8353 S 205.874,61.7068 205.874,61.7068 S 205.802,61.5784 205.802,61.5784 S 205.73,61.45 205.73,61.45 S 205.658,61.3217 205.658,61.3217 S 205.586,61.1934 205.586,61.1934 S 205.513,61.0653 205.513,61.0653 S 205.44,60.9372 205.44,60.9372 S 205.368,60.8092 205.368,60.8092 S 205.295,60.6812 205.295,60.6812 S 205.222,60.5533 205.222,60.5533 S 205.149,60.4255 205.149,60.4255 S 205.075,60.2978 205.075,60.2978 S 205.002,60.1701 205.002,60.1701 S 204.928,60.0425 204.928,60.0425 S 204.855,59.915 204.855,59.915 S 204.781,59.7875 204.781,59.7875 S 204.707,59.6602 204.707,59.6602 S 204.633,59.5329 204.633,59.5329 S 204.559,59.4056 204.559,59.4056 S 204.485,59.2785 204.485,59.2785 S 204.41,59.1514 204.41,59.1514 S 204.336,59.0244 204.336,59.0244 S 204.261,58.8974 204.261,58.8974 S 204.186,58.7706 204.186,58.7706 S 204.111,58.6438 204.111,58.6438 S 204.036,58.5171 204.036,58.5171 S 203.961,58.3904 203.961,58.3904 S 203.886,58.2639 203.886,58.2639 S 203.81,58.1374 203.81,58.1374 S 203.735,58.0109 203.735,58.0109 S 203.659,57.8846 203.659,57.8846 S 203.584,57.7583 203.584,57.7583 S 203.508,57.6321 203.508,57.6321 S 203.432,57.506 203.432,57.506 S 203.355,57.3799 203.355,57.3799 S 203.279,57.254 203.279,57.254 S 203.203,57.1281 203.203,57.1281 S 203.126,57.0022 203.126,57.0022 S 203.05,56.8765 203.05,56.8765 S 202.973,56.7508 202.973,56.7508 S 202.896,56.6252 202.896,56.6252 S 202.819,56.4997 202.819,56.4997 S 202.742,56.3742 202.742,56.3742 S 202.665,56.2489 202.665,56.2489 S 202.587,56.1236 202.587,56.1236 S 202.51,55.9984 202.51,55.9984 S 202.432,55.8732 202.432,55.8732 S 202.354,55.7481 202.354,55.7481 S 202.277,55.6231 202.277,55.6231 S 202.199,55.4982 202.199,55.4982 S 202.12,55.3734 202.12,55.3734 S 202.042,55.2486 202.042,55.2486 S 201.964,55.1239 201.964,55.1239 S 201.885,54.9993 201.885,54.9993 S 201.807,54.8748 201.807,54.8748 S 201.728,54.7504 201.728,54.7504 S 201.649,54.626 201.649,54.626 S 201.57,54.5017 201.57,54.5017 S 201.491,54.3775 201.491,54.3775 S 201.412,54.2533 201.412,54.2533 S 201.333,54.1293 201.333,54.1293 S 201.253,54.0053 201.253,54.0053 S 201.174,53.8814 201.174,53.8814 S 201.094,53.7575 201.094,53.7575 S 201.014,53.6338 201.014,53.6338 S 200.934,53.5101 200.934,53.5101 S 200.854,53.3865 200.854,53.3865 S 200.774,53.263 200.774,53.263 S 200.694,53.1395 200.694,53.1395 S 200.613,53.0162 200.613,53.0162 S 200.533,52.8929 200.533,52.8929 S 200.452,52.7697 200.452,52.7697 S 200.371,52.6466 200.371,52.6466 S 200.29,52.5235 200.29,52.5235 S 200.209,52.4006 200.209,52.4006 S 200.128,52.2777 200.128,52.2777 S 200.047,52.1549 200.047,52.1549 S 199.965,52.0322 199.965,52.0322 S 199.884,51.9095 199.884,51.9095 S 199.802,51.7869 199.802,51.7869 S 199.72,51.6645 199.72,51.6645 S 199.639,51.5421 199.639,51.5421 S 199.557,51.4197 199.557,51.4197 S 199.474,51.2975 199.474,51.2975 S 199.392,51.1753 199.392,51.1753 S 199.31,51.0533 199.31,51.0533 S 199.227,50.9313 199.227,50.9313 S 199.145,50.8093 199.145,50.8093 S 199.062,50.6875 199.062,50.6875 S 198.979,50.5657 198.979,50.5657 S 198.896,50.4441 198.896,50.4441 S 198.813,50.3225 198.813,50.3225 S 198.73,50.201 198.73,50.201 S 198.647,50.0795 198.647,50.0795 S 198.563,49.9582 198.563,49.9582 S 198.48,49.8369 198.48,49.8369 S 198.396,49.7157 198.396,49.7157 S 198.312,49.5946 198.312,49.5946 S 198.228,49.4736 198.228,49.4736 S 198.144,49.3527 198.144,49.3527 S 198.06,49.2318 198.06,49.2318 S 197.976,49.111 197.976,49.111 S 197.892,48.9903 197.892,48.9903 S 197.807,48.8697 197.807,48.8697 S 197.722,48.7492 197.722,48.7492 S 197.638,48.6288 197.638,48.6288 S 197.553,48.5084 197.553,48.5084 S 197.468,48.3881 197.468,48.3881 S 197.383,48.2679 197.383,48.2679 S 197.298,48.1478 197.298,48.1478 S 197.212,48.0278 197.212,48.0278 S 197.127,47.9079 197.127,47.9079 S 197.041,47.788 197.041,47.788 S 196.956,47.6683 196.956,47.6683 S 196.87,47.5486 196.87,47.5486 S 196.784,47.429 196.784,47.429 S 196.698,47.3094 196.698,47.3094 S 196.612,47.19 196.612,47.19 S 196.525,47.0707 196.525,47.0707 S 196.439,46.9514 196.439,46.9514 S 196.353,46.8322 196.353,46.8322 S 196.266,46.7131 196.266,46.7131 S 196.179,46.5941 196.179,46.5941 S 196.092,46.4752 196.092,46.4752 S 196.005,46.3563 196.005,46.3563 S 195.918,46.2376 195.918,46.2376 S 195.831,46.1189 195.831,46.1189 S 195.744,46.0003 195.744,46.0003 S 195.656,45.8818 195.656,45.8818 S 195.569,45.7634 195.569,45.7634 S 195.481,45.6451 195.481,45.6451 S 195.393,45.5269 195.393,45.5269 S 195.305,45.4087 195.305,45.4087 S 195.217,45.2906 195.217,45.2906 S 195.129,45.1727 195.129,45.1727 S 195.041,45.0548 195.041,45.0548 S 194.953,44.937 194.953,44.937 S 194.864,44.8192 194.864,44.8192 S 194.776,44.7016 194.776,44.7016 S 194.687,44.5841 194.687,44.5841 S 194.598,44.4666 194.598,44.4666 S 194.509,44.3492 194.509,44.3492 S 194.42,44.232 194.42,44.232 S 194.331,44.1148 194.331,44.1148 S 194.242,43.9976 194.242,43.9976 S 194.152,43.8806 194.152,43.8806 S 194.063,43.7637 194.063,43.7637 S 193.973,43.6468 193.973,43.6468 S 193.883,43.5301 193.883,43.5301 S 193.794,43.4134 193.794,43.4134 S 193.704,43.2968 193.704,43.2968 S 193.613,43.1803 193.613,43.1803 S 193.523,43.0639 193.523,43.0639 S 193.433,42.9476 193.433,42.9476 S 193.343,42.8314 193.343,42.8314 S 193.252,42.7153 193.252,42.7153 S 193.161,42.5992 193.161,42.5992 S 193.071,42.4833 193.071,42.4833 S 192.98,42.3674 192.98,42.3674 S 192.889,42.2516 192.889,42.2516 S 192.798,42.1359 192.798,42.1359 S 192.706,42.0203 192.706,42.0203 S 192.615,41.9048 192.615,41.9048 S 192.524,41.7894 192.524,41.7894 S 192.432,41.674 192.432,41.674 S 192.34,41.5588 192.34,41.5588 S 192.248,41.4436 192.248,41.4436 S 192.157,41.3286 192.157,41.3286 S 192.065,41.2136 192.065,41.2136 S 191.972,41.0987 191.972,41.0987 S 191.88,40.9839 191.88,40.9839 S 191.788,40.8692 191.788,40.8692 S 191.695,40.7546 191.695,40.7546 S 191.603,40.6401 191.603,40.6401 S 191.51,40.5257 191.51,40.5257 S 191.417,40.4113 191.417,40.4113 S 191.324,40.2971 191.324,40.2971 S 191.231,40.1829 191.231,40.1829 S 191.138,40.0689 191.138,40.0689 S 191.045,39.9549 191.045,39.9549 S 190.952,39.841 190.952,39.841 S 190.858,39.7272 190.858,39.7272 S 190.765,39.6135 190.765,39.6135 S 190.671,39.4999 190.671,39.4999 S 190.577,39.3864 190.577,39.3864 S 190.483,39.273 190.483,39.273 S 190.389,39.1597 190.389,39.1597 S 190.295,39.0464 190.295,39.0464 S 190.201,38.9333 190.201,38.9333 S 190.106,38.8202 190.106,38.8202 S 190.012,38.7073 190.012,38.7073 S 189.917,38.5944 189.917,38.5944 S 189.822,38.4816 189.822,38.4816 S 189.728,38.3689 189.728,38.3689 S 189.633,38.2564 189.633,38.2564 S 189.538,38.1439 189.538,38.1439 S 189.443,38.0315 189.443,38.0315 S 189.347,37.9192 189.347,37.9192 S 189.252,37.8069 189.252,37.8069 S 189.156,37.6948 189.156,37.6948 S 189.061,37.5828 189.061,37.5828 S 188.965,37.4709 188.965,37.4709 S 188.869,37.359 188.869,37.359 S 188.773,37.2473 188.773,37.2473 S 188.677,37.1356 188.677,37.1356 S 188.581,37.0241 188.581,37.0241 S 188.485,36.9126 188.485,36.9126 S 188.389,36.8012 188.389,36.8012 S 188.292,36.69 188.292,36.69 S 188.196,36.5788 188.196,36.5788 S 188.099,36.4677 188.099,36.4677 S 188.002,36.3567 188.002,36.3567 S 187.905,36.2458 187.905,36.2458 S 187.808,36.135 187.808,36.135 S 187.711,36.0243 187.711,36.0243 S 187.614,35.9137 187.614,35.9137 S 187.517,35.8032 187.517,35.8032 S 187.419,35.6928 187.419,35.6928 S 187.322,35.5825 187.322,35.5825 S 187.224,35.4723 187.224,35.4723 S 187.126,35.3621 187.126,35.3621 S 187.028,35.2521 187.028,35.2521 S 186.93,35.1422 186.93,35.1422 S 186.832,35.0323 186.832,35.0323 S 186.734,34.9226 186.734,34.9226 S 186.636,34.8129 186.636,34.8129 S 186.537,34.7034 186.537,34.7034 S 186.439,34.5939 186.439,34.5939 S 186.34,34.4846 186.34,34.4846 S 186.242,34.3753 186.242,34.3753 S 186.143,34.2662 186.143,34.2662 S 186.044,34.1571 186.044,34.1571 S 185.945,34.0481 185.945,34.0481 S 185.846,33.9393 185.846,33.9393 S 185.746,33.8305 185.746,33.8305 S 185.647,33.7218 185.647,33.7218 S 185.547,33.6132 185.547,33.6132 S 185.448,33.5047 185.448,33.5047 S 185.348,33.3964 185.348,33.3964 S 185.248,33.2881 185.248,33.2881 S 185.148,33.1799 185.148,33.1799 S 185.048,33.0718 185.048,33.0718 S 184.948,32.9638 184.948,32.9638 S 184.848,32.8559 184.848,32.8559 S 184.748,32.7481 184.748,32.7481 S 184.647,32.6404 184.647,32.6404 S 184.547,32.5328 184.547,32.5328 S 184.446,32.4253 184.446,32.4253 S 184.345,32.3179 184.345,32.3179 S 184.244,32.2106 184.244,32.2106 S 184.143,32.1034 184.143,32.1034 S 184.042,31.9963 184.042,31.9963 S 183.941,31.8893 183.941,31.8893 S 183.84,31.7824 183.84,31.7824 S 183.739,31.6756 183.739,31.6756 S 183.637,31.5689 183.637,31.5689 S 183.535,31.4623 183.535,31.4623 S 183.434,31.3558 183.434,31.3558 S 183.332,31.2494 183.332,31.2494 S 183.23,31.1431 183.23,31.1431 S 183.128,31.0369 183.128,31.0369 S 183.026,30.9308 183.026,30.9308 S 182.924,30.8248 182.924,30.8248 S 182.821,30.7189 182.821,30.7189 S 182.719,30.6131 182.719,30.6131 S 182.616,30.5074 182.616,30.5074 S 182.514,30.4018 182.514,30.4018 S 182.411,30.2963 182.411,30.2963 S 182.308,30.1909 182.308,30.1909 S 182.205,30.0856 182.205,30.0856 S 182.102,29.9804 182.102,29.9804 S 181.999,29.8753 181.999,29.8753 S 181.896,29.7703 181.896,29.7703 S 181.896,29.7703 181.804,29.6771" style="stroke-width: 1.5px;stroke-opacity: 1;fill-opacity: 0" stroke-width="1.5" stroke-opacity="1" stroke-dasharray="0" fill-opacity="0"/><ellipse cx="75" cy="135" rx="4" ry="4" fill="#888888" stroke="#888888" style="stroke-width: 2px;stroke-opacity: 1;fill-opacity: 1" stroke-width="2" stroke-opacity="1" stroke-dasharray="0" fill-opacity="1"/><ellipse cx="225" cy="135" rx="4" ry="4" fill="#29abca" stroke="#29abca" style="stroke-width: 2px;stroke-opacity: 1;fill-opacity: 1" stroke-width="2" stroke-opacity="1" stroke-dasharray="0" fill-opacity="1"/></svg>